<svg width="102" height="105" viewBox="0 0 102 105" fill="none" xmlns="http://www.w3.org/2000/svg">
<g id="Group 32">
<g id="Group">
<path id="Vector" d="M55.1866 43.137C55.1866 43.137 27.3346 30.0371 15.9539 34.2481V39.5643C15.9539 39.5643 34.1649 36.8586 56.8574 49.0344C56.8574 49.0344 59.1964 48.9581 58.7738 46.8717C58.3512 44.7662 55.1866 43.137 55.1866 43.137Z" fill="#488280"/>
<path id="Vector_2" d="M81.368 16.5943C82.5769 16.8134 82.9307 17.6899 83.0388 17.3945C84.2771 13.898 83.6874 12.0117 84.4343 12.0974C85.1812 12.1831 84.4343 15.0223 84.8667 15.4224C84.8667 15.4224 85.1419 11.4686 85.938 11.4496C86.734 11.4305 85.8299 14.5364 85.938 15.108C85.938 15.108 86.6063 11.5543 87.0977 11.9545C87.5891 12.3546 86.9502 14.1839 86.7635 15.632C86.7635 15.632 87.5596 12.6309 87.9035 13.193C88.2475 13.7551 87.6775 14.7841 87.2353 17.0992C87.1271 17.6804 86.2819 21.4246 86.1935 21.4722C86.105 21.5198 84.5719 21.6056 84.5719 21.6056C84.5719 21.6056 84.3754 20.0336 82.2427 18.1853C81.8299 17.8328 81.3091 17.6137 80.7587 17.5851C80.5916 17.5756 80.4344 17.5851 80.287 17.6137C79.7071 17.7566 80.0904 16.3656 81.368 16.5943Z" fill="#FCCAB1"/>
<path id="Vector_3" d="M74.0166 59.9336C74.0166 59.9336 57.0047 106.198 23.934 70.8709L27.1575 67.5458C27.1575 67.5458 48.877 90.0968 57.0833 66.2311L65.6237 60.8768L74.0166 59.9336Z" fill="#1A343E"/>
<path id="Vector_4" d="M54.8327 59.8289C54.8327 59.8289 45.4865 72.8526 81.4662 76.8635C90.2719 77.8448 93.8885 104.235 93.8885 104.235L98.3012 103.263C98.3012 103.263 100.306 73.9196 84.9649 69.0798L65.5352 61.4104L54.8327 59.8289Z" fill="#1A343E"/>
<path id="Vector_5" d="M93.8691 104.435C93.8691 104.435 101.554 102.53 101.78 103.197C102.007 103.864 94.4981 104.997 94.4981 104.997L93.8691 104.435Z" fill="#272E33"/>
<path id="Vector_6" d="M48.3859 28.0651C48.3859 28.0651 31.3641 36.0489 29.9096 41.1364C28.3568 46.5288 30.6565 59.1048 30.6565 59.1048L32.6122 59.7336C32.6122 59.7336 34.224 47.3005 37.1822 43.3944C38.7743 41.2889 51.4129 37.3827 51.4129 37.3827C51.4129 37.3827 52.5627 31.0376 48.3859 28.0651Z" fill="#274652"/>
<g id="Group_2">
<path id="Vector_7" d="M76.9061 76.2061C76.9061 76.2156 76.8275 76.2156 76.68 76.2061C76.5326 76.1966 76.3164 76.187 76.0314 76.1489C75.4712 76.0918 74.6653 75.9965 73.6629 75.8345C71.6777 75.5106 68.9455 74.9485 65.9972 74.1196C63.039 73.2908 60.4248 72.338 58.6263 71.452C57.7222 71.0137 57.0342 70.585 56.5821 70.2516C56.3659 70.0801 56.189 69.9467 56.0907 69.8419C55.9826 69.7371 55.9335 69.6799 55.9335 69.6799C55.9335 69.6799 56.0023 69.718 56.1104 69.8133C56.2185 69.9086 56.3954 70.0324 56.6214 70.1944C57.0735 70.5088 57.7811 70.9089 58.6853 71.3377C60.4936 72.1951 63.1078 73.1193 66.0562 73.9481C69.0045 74.777 71.717 75.3582 73.6924 75.7107C74.685 75.8917 75.481 76.006 76.0412 76.0822C76.3164 76.1203 76.5326 76.1489 76.68 76.168C76.8275 76.187 76.9061 76.1966 76.9061 76.2061Z" fill="#32383F"/>
</g>
<g id="Group_3">
<path id="Vector_8" d="M46.4891 28.532C46.4891 28.5225 46.666 28.5034 46.9805 28.4939C47.3048 28.5034 47.7667 28.5415 48.317 28.7035C48.4546 28.7511 48.5922 28.7988 48.7396 28.8559C48.8871 28.9131 49.0345 28.9893 49.1819 29.056C49.2605 29.0941 49.3293 29.1417 49.4079 29.1799C49.4472 29.1989 49.4866 29.218 49.5259 29.2465C49.5652 29.2656 49.6045 29.2847 49.6438 29.3132C49.7224 29.3609 49.7912 29.4085 49.8698 29.4657C49.9092 29.4943 49.9485 29.5133 49.9878 29.5419C50.0271 29.5705 50.0664 29.5991 50.0959 29.6276C50.1745 29.6848 50.2433 29.742 50.3219 29.8087C50.4005 29.8658 50.4693 29.942 50.5381 30.0087C50.6856 30.1421 50.8231 30.2945 50.9607 30.4375C51.2163 30.7519 51.4718 31.0948 51.6585 31.4854C51.688 31.5331 51.7076 31.5807 51.7371 31.6284C51.7568 31.676 51.7764 31.7236 51.7961 31.7808C51.8354 31.8761 51.8747 31.9809 51.914 32.0761C51.9435 32.1809 51.973 32.2762 52.0025 32.3715C52.0123 32.4191 52.032 32.4667 52.0418 32.5239C52.0516 32.5715 52.0614 32.6192 52.0713 32.6763C52.1499 33.0765 52.1892 33.4576 52.1892 33.8291C52.1892 34.2007 52.1597 34.5437 52.1204 34.8676C52.1008 35.0296 52.0713 35.182 52.0516 35.3344C52.0221 35.4869 51.9927 35.6298 51.9632 35.7632C51.8452 36.3062 51.7175 36.7349 51.629 37.0303C51.5406 37.3256 51.4816 37.4876 51.4718 37.4876C51.4619 37.4876 51.4914 37.3161 51.5602 37.0112C51.629 36.7064 51.7273 36.2776 51.8256 35.7346C51.8551 35.6012 51.8747 35.4583 51.8944 35.3059C51.914 35.1534 51.9435 35.001 51.9533 34.839C51.9927 34.5151 52.0123 34.1721 52.0025 33.8196C51.9927 33.4576 51.9632 33.086 51.8747 32.7049C51.8649 32.6573 51.8551 32.6097 51.8452 32.562C51.8354 32.5144 51.8158 32.4667 51.8059 32.4191C51.7764 32.3238 51.747 32.2286 51.7175 32.1333C51.6782 32.038 51.6389 31.9428 51.5995 31.8475C51.5799 31.7998 51.5602 31.7522 51.5406 31.7046C51.5209 31.6569 51.4914 31.6093 51.4718 31.5617C51.2949 31.1901 51.0492 30.8566 50.8035 30.5518C50.6659 30.4089 50.548 30.2564 50.4005 30.1326C50.3317 30.0659 50.263 29.9992 50.1942 29.942C50.1254 29.8849 50.0467 29.8277 49.978 29.7705C49.9386 29.742 49.9092 29.7134 49.8698 29.6848C49.8305 29.6562 49.7912 29.6372 49.7617 29.6086C49.6831 29.5609 49.6143 29.5133 49.5455 29.4561C49.5062 29.4276 49.4767 29.4085 49.4374 29.3895C49.3981 29.3704 49.3588 29.3513 49.3293 29.3228C49.2605 29.2847 49.1819 29.237 49.1131 29.1989C48.9657 29.1322 48.8183 29.056 48.6807 28.9988C48.5333 28.9417 48.3957 28.894 48.2679 28.8464C47.7372 28.6654 47.2851 28.6178 46.9706 28.5796C46.666 28.5606 46.4891 28.5511 46.4891 28.532Z" fill="#706157"/>
</g>
<path id="Vector_9" d="M26.8332 67.8888C26.8332 67.8888 17.3788 67.9555 17.654 68.5462C17.9292 69.1369 25.3688 69.4036 25.3688 69.4036L26.8332 67.8888Z" fill="#272E33"/>
<path id="Vector_10" d="M32.288 59.7812C32.288 59.7812 30.4502 63.573 30.2536 63.6969C30.057 63.8207 25.8901 62.6393 26.8237 61.8962C27.7573 61.1531 28.347 59.5811 29.0743 60.1432C29.7917 60.7053 30.6565 59.0952 30.6565 59.0952L32.288 59.7812Z" fill="#FCCAB1"/>
<path id="Vector_11" d="M78.3115 44.995C78.3115 44.995 76.6211 43.7184 73.6826 44.3567L74.2231 48.1581C74.2231 48.1581 79.6481 47.3483 79.8151 49.8634C79.8151 49.8634 80.6014 45.7763 78.3115 44.995Z" fill="#488280"/>
<path id="Vector_12" d="M70.4593 49.1774C70.4593 49.1774 77.2896 46.0335 78.3117 44.995C79.8154 45.9191 80.3264 47.5388 79.8154 49.8634L72.1792 53.0455L67.4422 52.4548L70.4593 49.1774Z" fill="#599E9E"/>
</g>
<path id="Vector_13" d="M63.0395 23.0536C63.0395 23.0536 72.9459 33.8098 77.565 36.3441C81.1129 38.2876 82.6951 29.5512 83.7369 24.0349L83.9629 20.567L86.5771 19.9858C86.5771 19.9858 89.8596 41.8794 79.678 42.8988C74.5577 43.4133 72.7789 40.1931 72.7789 40.1931L63.0395 23.0536Z" fill="#274652"/>
<g id="Group_4">
<path id="Vector_14" d="M51.8647 26.0927C56.8376 23.6061 57.5157 23.9586 62.3117 22.701L67.8546 30.8754L67.2452 44.2897L55.1079 40.5932L48.6805 28.7032L51.8647 26.0927Z" fill="#E0E0E0"/>
<path id="Vector_15" d="M54.2036 25.5784L53.6336 21.7579L59.0782 21.8246L60.0807 23.6348C60.0807 23.6348 57.6434 26.9884 54.2036 25.5784Z" fill="#FCCAB1"/>
<g id="Group_5">
<path id="Vector_16" d="M61.0936 23.1012L60.1698 21.8627L58.0568 24.2445L59.0985 26.0928L61.0936 23.1012Z" fill="#EAEAEA"/>
<path id="Vector_17" d="M58.0568 24.2443L58.0666 25.7115L58.8234 25.6067L58.0568 24.2443Z" fill="#CECECE"/>
<path id="Vector_18" d="M58.0663 25.7116L57.054 24.6731L57.2506 26.388L58.0663 25.7116Z" fill="#CECECE"/>
<path id="Vector_19" d="M53.0541 24.5111C53.0836 24.5587 57.054 24.6635 57.054 24.6635L57.398 26.6928L53.0934 26.1498L53.0541 24.5111Z" fill="#EAEAEA"/>
</g>
<path id="Vector_20" d="M57.2014 25.7497L57.7321 25.6925C57.7321 25.6925 58.538 25.0923 58.5478 25.1209C58.5576 25.1494 58.8918 25.7306 58.8918 25.7306L58.1645 26.045L57.339 26.3785L57.2014 25.7497Z" fill="#EA9315"/>
<g id="Group_6">
<path id="Vector_21" d="M57.4468 25.2639C57.4468 25.2639 63.9037 37.716 64.2575 39.7072L67.422 47.3194L70.5767 45.4616L58.1347 24.9209L57.4468 25.2639Z" fill="#F9AC30"/>
<path id="Vector_22" d="M61.5154 22.8726C61.5154 22.8726 68.7388 35.9249 67.2548 44.2898C67.2155 44.5185 66.96 48.2722 66.675 52.7024C66.3605 57.5803 67.0288 62.8965 67.0288 62.8965L74.0262 61.0292C74.0262 61.0292 73.9083 44.2898 71.127 35.4295C68.7388 27.8363 63.2647 22.8726 63.2647 22.8726C63.2647 22.8726 62.508 22.4915 61.5154 22.8726Z" fill="#274652"/>
<path id="Vector_23" d="M67.2453 44.2899C67.2453 44.2899 69.0438 41.0125 68.8079 39.0689L67.7563 38.2306V34.2196L62.1053 22.7012L61.496 22.8727C61.5156 22.8727 68.5425 38.6212 67.2453 44.2899Z" fill="#1A343E"/>
<g id="Group_7">
<path id="Vector_24" d="M66.0856 62.3917C66.0758 62.3917 66.0954 62.325 66.1348 62.2106C66.1741 62.0963 66.2232 61.9248 66.292 61.6962C66.4296 61.2484 66.6065 60.6005 66.7932 59.7907C67.1667 58.1711 67.55 55.9036 67.7367 53.3884C67.9332 50.8637 67.8939 48.5676 67.7072 46.9194C67.6188 46.1001 67.5008 45.4332 67.4025 44.9854C67.3731 44.8711 67.3632 44.7663 67.3338 44.6805C67.3141 44.5948 67.2944 44.5186 67.2846 44.4614C67.2551 44.3471 67.2453 44.2804 67.2551 44.2804C67.265 44.2804 67.2846 44.3376 67.3239 44.4519C67.3436 44.509 67.3632 44.5853 67.3927 44.671C67.4222 44.7568 67.4419 44.8616 67.4713 44.9664C67.5893 45.4141 67.7367 46.081 67.8448 46.9099C68.061 48.5581 68.1298 50.8732 67.9332 53.4075C67.7367 55.9417 67.3337 58.2092 66.9308 59.8288C66.7244 60.6386 66.5279 61.2865 66.3608 61.7248C66.2822 61.9439 66.2134 62.1154 66.1642 62.2297C66.1249 62.344 66.0954 62.4012 66.0856 62.3917Z" fill="#3C424C"/>
</g>
<path id="Vector_25" d="M69.0349 47.0242C69.0349 47.1862 68.8971 47.3196 68.7298 47.3196C68.5625 47.3196 68.4247 47.1862 68.4247 47.0242C68.4247 46.8623 68.5625 46.7289 68.7298 46.7289C68.8971 46.7289 69.0349 46.8623 69.0349 47.0242Z" fill="#3C424C"/>
<path id="Vector_26" d="M69.1427 51.0257C69.1427 51.1877 69.0049 51.321 68.8376 51.321C68.6703 51.321 68.5325 51.1877 68.5325 51.0257C68.5325 50.8637 68.6703 50.7303 68.8376 50.7303C69.0049 50.7303 69.1427 50.8637 69.1427 51.0257Z" fill="#3C424C"/>
<path id="Vector_27" d="M66.0167 62.868L54.2724 61.0292C54.2724 61.0292 56.4051 56.5038 57.948 49.7966C59.0389 45.0711 46.479 29.7037 46.479 29.7037L51.8548 26.1024L67.2353 44.2994C67.2353 44.2994 68.2181 53.3408 67.2353 57.971L66.0167 62.868Z" fill="#274652"/>
<path id="Vector_28" d="M50.9999 26.5407L59.3831 39.3643L63.0292 40.7934L64.1103 43.3753L67.2453 44.2899L51.8648 26.0929L50.9999 26.5407Z" fill="#1A343E"/>
<g id="Group_8">
<path id="Vector_29" d="M71.3335 48.539C71.3335 48.5676 70.9601 48.5771 70.3606 48.6248C70.2132 48.6343 70.0461 48.6438 69.8692 48.6629C69.6923 48.6819 69.5056 48.701 69.309 48.7296C68.9159 48.7867 68.4835 48.8534 68.0412 48.9487C67.5891 49.044 67.1764 49.1583 66.7931 49.2631C66.6064 49.3202 66.4196 49.3774 66.2526 49.4346C66.0855 49.4917 65.9282 49.5489 65.7907 49.5965C65.2305 49.7966 64.8865 49.949 64.8668 49.9205C64.857 49.9014 65.1813 49.7109 65.7317 49.4727C65.8693 49.4155 66.0265 49.3488 66.1936 49.2917C66.3607 49.225 66.5376 49.1678 66.7341 49.1011C67.1174 48.9773 67.54 48.8629 68.0019 48.7677C68.454 48.6724 68.8962 48.6057 69.2894 48.5581C69.4859 48.539 69.6825 48.52 69.8594 48.5104C70.0363 48.5009 70.2033 48.4914 70.3606 48.4914C70.9601 48.4818 71.3434 48.52 71.3335 48.539Z" fill="#3C424C"/>
</g>
</g>
</g>
<g id="Group_9">
<path id="Vector_30" d="M72.4642 63.8207C72.4446 63.8683 71.7075 63.6778 70.8132 63.3824C69.9188 63.0966 69.2112 62.8203 69.2309 62.7631C69.2505 62.7155 69.9876 62.9061 70.882 63.2014C71.7763 63.4967 72.4839 63.773 72.4642 63.8207Z" fill="#32383F"/>
</g>
<path id="Vector_31" d="M0.848633 57.1991C0.848633 57.1991 28.5828 44.7661 43.698 50.8635C58.823 56.9609 64.8082 50.8635 64.8082 50.8635L61.28 54.8745H67.4519C67.4519 54.8745 58.194 59.8858 51.059 58.9617C43.9142 58.0471 32.4156 49.7107 3.57094 63.7158L0.848633 57.1991Z" fill="#599E9E"/>
<g id="Group_10">
<g id="Group_11">
<path id="Vector_32" d="M46.7934 14.5745C46.4985 14.7841 44.7983 15.7463 46.1841 17.8423C47.5698 19.9478 48.985 18.9094 48.985 18.9094L46.7934 14.5745Z" fill="#EAB69B"/>
<g id="Group_12">
<path id="Vector_33" d="M48.1101 18.233C48.1101 18.2425 48.0708 18.2616 47.9823 18.2806C47.8939 18.2997 47.7661 18.2997 47.6187 18.2711C47.4615 18.2425 47.2846 18.1758 47.1175 18.0615C47.029 18.0043 46.9504 17.9376 46.8718 17.8519C46.7932 17.7661 46.7244 17.6709 46.6752 17.5661C46.5671 17.3565 46.5278 17.1278 46.5278 16.9278C46.5278 16.7277 46.577 16.5467 46.6458 16.4133C46.7146 16.2799 46.7833 16.1751 46.8423 16.1179C46.9013 16.0608 46.9406 16.0322 46.9504 16.0417C46.9701 16.0608 46.8521 16.1942 46.7735 16.4609C46.7342 16.5943 46.7047 16.7563 46.7146 16.9278C46.7244 17.1088 46.7637 17.2993 46.8521 17.4803C46.9013 17.5661 46.9602 17.6518 47.0192 17.728C47.088 17.8043 47.1568 17.8614 47.2256 17.9186C47.373 18.0234 47.5204 18.0996 47.658 18.1377C47.9234 18.2235 48.1003 18.2044 48.1101 18.233Z" fill="#D68772"/>
</g>
<g id="Group_13">
<path id="Vector_34" d="M47.9235 17.1373C47.9039 17.1563 47.8253 17.0992 47.6975 17.0611C47.5697 17.023 47.383 16.9848 47.2159 17.0611C47.1078 17.1087 47.0194 17.1849 46.9604 17.2611C46.9014 17.3374 46.8621 17.4136 46.8326 17.4803L46.7245 17.4612C46.7638 17.385 46.7933 17.3374 46.813 17.3469C46.8326 17.3564 46.8425 17.404 46.8326 17.4898L46.7245 17.4707C46.7245 17.3945 46.7442 17.2897 46.813 17.1754C46.872 17.0706 46.9899 16.9563 47.1373 16.8991C47.2552 16.8515 47.383 16.8419 47.4911 16.8515C47.5992 16.8705 47.6877 16.9086 47.7565 16.9467C47.9039 17.023 47.9432 17.1182 47.9235 17.1373Z" fill="#D68772"/>
</g>
</g>
<g id="Group_14">
<path id="Vector_35" d="M58.7637 10.4301C59.1372 10.4301 61.0929 10.2396 61.2403 12.7262C61.3877 15.2223 59.6187 15.1842 59.6187 15.1842L58.7637 10.4301Z" fill="#EAB69B"/>
<g id="Group_15">
<path id="Vector_36" d="M59.9138 14.1456C59.8941 14.1171 60.0612 14.0313 60.2282 13.8122C60.3069 13.7074 60.3855 13.555 60.4445 13.393C60.4641 13.3072 60.4838 13.212 60.4936 13.1167C60.5034 13.0214 60.4936 12.9262 60.4838 12.8214C60.4543 12.6213 60.3658 12.4403 60.2676 12.2974C60.1595 12.1545 60.0415 12.0306 59.9334 11.9544C59.7074 11.7924 59.5305 11.7448 59.5305 11.7162C59.5305 11.7067 59.5796 11.6971 59.6681 11.7162C59.7565 11.7257 59.8744 11.7638 60.012 11.8401C60.1496 11.9163 60.297 12.0306 60.415 12.1926C60.5427 12.3545 60.641 12.5546 60.6803 12.7928C60.7 12.9071 60.7 13.0214 60.6902 13.1358C60.6803 13.2501 60.6508 13.3454 60.6214 13.4502C60.5526 13.6407 60.4445 13.7931 60.3364 13.9075C60.2282 14.0218 60.1201 14.0885 60.0415 14.1266C59.9727 14.1456 59.9236 14.1552 59.9138 14.1456Z" fill="#D68772"/>
</g>
<g id="Group_16">
<path id="Vector_37" d="M59.4026 13.1452C59.3829 13.1452 59.3534 13.0404 59.4124 12.8975C59.4419 12.8213 59.491 12.7356 59.5696 12.6689C59.6483 12.5927 59.7564 12.526 59.8841 12.4974C60.0414 12.4593 60.1986 12.4879 60.3166 12.5355C60.4345 12.5831 60.5229 12.6594 60.5623 12.726L60.4836 12.8023C60.4247 12.7356 60.3952 12.6879 60.4148 12.6784C60.4247 12.6594 60.4836 12.6784 60.5623 12.7165L60.4935 12.7927C60.4345 12.7546 60.3559 12.7165 60.2576 12.6879C60.1593 12.6594 60.0414 12.6498 59.9333 12.6784C59.7465 12.7165 59.6188 12.8499 59.5402 12.9547C59.4615 13.069 59.4321 13.1452 59.4026 13.1452Z" fill="#D68772"/>
</g>
</g>
<path id="Vector_38" d="M60.405 20.6623C59.1864 23.1108 52.0415 23.8921 50.8327 23.349C49.6239 22.806 45.5257 12.2689 45.5257 12.2689C43.3046 6.85739 46.4495 5.495 49.329 3.72293C52.2086 1.95087 56.1397 2.65588 57.9775 7.11463C57.9775 7.11463 61.3878 18.6712 60.405 20.6623Z" fill="#FCCAB1"/>
<path id="Vector_39" d="M48.2678 18.814C52.9361 17.4802 56.9262 15.851 59.7959 13.7074C59.7959 13.7074 60.7787 18.5853 60.7787 19.1379C60.7885 20.386 61.103 21.8818 56.022 23.0155C50.941 24.1492 50.9214 23.73 50.1548 22.7868C49.7322 22.2628 48.2482 18.8712 48.2678 18.814Z" fill="#B76A2B"/>
<g id="Group_17">
<path id="Vector_40" d="M52.1791 19.0902C53.1619 19.4332 54.2823 19.3475 55.1766 18.8425C56.071 18.3376 56.7294 17.442 56.9358 16.4226" fill="#ECE9DE"/>
</g>
<g id="Group_18">
<path id="Vector_41" d="M54.8228 15.0412C54.8326 15.0507 54.7737 15.1555 54.6459 15.3366C54.5181 15.5176 54.3216 15.7653 54.0464 16.0511C53.9088 16.194 53.7516 16.3464 53.555 16.4798C53.5059 16.5084 53.4567 16.5465 53.3978 16.5751C53.3683 16.5941 53.3388 16.6037 53.3093 16.6227C53.2798 16.6418 53.2504 16.6513 53.211 16.6608C53.1816 16.6704 53.1521 16.6894 53.0931 16.6894C53.0341 16.6894 52.9752 16.6704 52.9457 16.6323C52.8769 16.5656 52.8474 16.4989 52.8278 16.4322C52.7786 16.2988 52.759 16.1654 52.7393 16.032C52.7197 15.8987 52.7098 15.7557 52.7098 15.6224C52.7 15.3461 52.7 15.0507 52.7098 14.7554C52.7295 14.1647 52.7688 13.6026 52.8081 13.0977C52.8179 12.9738 52.8278 12.8499 52.8376 12.7261C52.8376 12.6975 52.8376 12.6689 52.8474 12.6403V12.6022C52.8474 12.5927 52.8474 12.5832 52.8376 12.5737V12.5546L52.8278 12.5355L52.8179 12.4974C52.8081 12.4689 52.7983 12.4498 52.7884 12.4212C52.7 12.2211 52.6017 12.0306 52.5133 11.8591C52.1496 11.1827 51.9039 10.7635 51.9334 10.7444C51.9433 10.7349 52.0219 10.8302 52.1398 11.0112C52.2676 11.1922 52.4346 11.459 52.6312 11.7924C52.7295 11.9639 52.8376 12.1449 52.9359 12.3545C52.9457 12.3831 52.9654 12.4117 52.9752 12.4403L52.9948 12.4879L53.0047 12.507L53.0145 12.5355L53.0243 12.5927C53.0243 12.6118 53.0243 12.6308 53.0243 12.6403C53.0243 12.6689 53.0243 12.6975 53.0243 12.7356C53.0145 12.8595 53.0145 12.9833 53.0047 13.1072C52.9752 13.6121 52.9359 14.1742 52.926 14.7554C52.9162 15.0507 52.9162 15.3365 52.926 15.6033C52.926 15.7367 52.9359 15.8701 52.9555 16.0035C52.9752 16.1273 52.9948 16.2607 53.0243 16.3655C53.044 16.4227 53.0636 16.4703 53.0931 16.4893C53.1029 16.4989 53.1128 16.4989 53.1128 16.4989C53.1128 16.4989 53.1521 16.4893 53.1717 16.4798C53.2012 16.4703 53.2209 16.4608 53.2504 16.4512C53.2798 16.4417 53.2995 16.4227 53.329 16.4131C53.3781 16.3941 53.4273 16.356 53.4764 16.3274C53.6631 16.2035 53.8204 16.0606 53.958 15.9272C54.243 15.6605 54.4494 15.4223 54.5968 15.2603C54.7344 15.1174 54.813 15.0317 54.8228 15.0412Z" fill="#E2A893"/>
</g>
<path id="Vector_42" d="M53.0933 8.9914L56.9556 8.16253L56.8279 7.26697L52.6412 7.57184L53.0933 8.9914Z" fill="#B9682B"/>
<g id="Group_19">
<path id="Vector_43" d="M51.4125 12.4306C51.4125 12.4306 50.3511 10.6205 48.9555 11.1826C47.56 11.7447 47.8941 13.4882 47.8941 13.4882L51.4125 12.4306Z" fill="#EFA98E"/>
<path id="Vector_44" d="M51.4127 12.4305C51.4127 12.4305 50.8624 11.2492 49.3292 11.5826C47.7961 11.9161 47.9042 13.4881 47.9042 13.4881C47.9042 13.4881 50.6069 12.6973 51.4127 12.4305Z" fill="#ECE9DE"/>
<path id="Vector_45" d="M51.2752 12.4115C51.2752 12.4115 50.9509 11.392 49.9878 11.6016C49.0246 11.8112 49.3883 12.9926 49.3883 12.9926C49.3883 12.9926 50.1941 12.9069 51.2752 12.4115Z" fill="#603934"/>
<g id="Group_20">
<path id="Vector_46" d="M47.8943 13.488C47.8746 13.488 47.8157 13.2022 47.9238 12.7449C47.9827 12.5163 48.1007 12.259 48.3169 12.0208C48.5331 11.7827 48.8378 11.5826 49.2014 11.4873C49.565 11.392 49.9287 11.4111 50.2431 11.5064C50.5576 11.5921 50.8033 11.7446 50.9802 11.897C51.1571 12.0494 51.2751 12.2019 51.3439 12.3067C51.4127 12.421 51.4421 12.4877 51.4323 12.4877C51.4028 12.5067 51.2554 12.259 50.8918 11.9923C50.7149 11.8684 50.479 11.735 50.194 11.6588C49.909 11.5826 49.5847 11.5731 49.2604 11.6588C48.936 11.735 48.6609 11.916 48.4643 12.1256C48.2678 12.3352 48.14 12.5639 48.0712 12.7735C47.9238 13.2022 47.9336 13.488 47.8943 13.488Z" fill="#443949"/>
</g>
<g id="Group_21">
<path id="Vector_47" d="M48.9359 12.602C48.9261 12.5449 49.0932 12.4782 49.2996 12.421C49.5059 12.3638 49.6829 12.3448 49.7025 12.4019C49.7222 12.4496 49.5649 12.5544 49.3487 12.6115C49.1325 12.6687 48.9458 12.6592 48.9359 12.602Z" fill="white"/>
</g>
</g>
<g id="Group_22">
<path id="Vector_48" d="M57.6141 10.6968C57.6141 10.6968 56.5527 8.88659 55.1572 9.4487C53.7616 10.0108 54.0958 11.7543 54.0958 11.7543L57.6141 10.6968Z" fill="#EFA98E"/>
<path id="Vector_49" d="M57.614 10.6969C57.614 10.6969 57.0637 9.51553 55.5306 9.84898C53.9974 10.1824 54.1055 11.7544 54.1055 11.7544C54.1055 11.7544 56.8082 10.9637 57.614 10.6969Z" fill="#ECE9DE"/>
<path id="Vector_50" d="M57.506 10.7731C57.506 10.7731 57.1817 9.75374 56.2185 9.96333C55.2554 10.1729 55.619 11.3543 55.619 11.3543C55.619 11.3543 56.4348 11.2686 57.506 10.7731Z" fill="#603934"/>
<g id="Group_23">
<path id="Vector_51" d="M54.0956 11.7544C54.076 11.7544 54.017 11.4686 54.1251 11.0113C54.1841 10.7826 54.302 10.5254 54.5182 10.2872C54.7344 10.049 55.0391 9.84895 55.4027 9.75368C55.7663 9.6584 56.13 9.67746 56.4445 9.77273C56.759 9.85848 57.0046 10.0109 57.1815 10.1633C57.3683 10.3158 57.4764 10.4682 57.555 10.5825C57.6238 10.6969 57.6533 10.7636 57.6336 10.7636C57.6041 10.7826 57.4567 10.5349 57.0931 10.2681C56.9162 10.1443 56.6803 10.0109 56.3953 9.93469C56.1103 9.85848 55.786 9.84895 55.4617 9.93469C55.1374 10.0109 54.8622 10.1919 54.6656 10.4015C54.4691 10.6111 54.3413 10.8398 54.2725 11.0494C54.1251 11.4686 54.1349 11.7544 54.0956 11.7544Z" fill="#443949"/>
</g>
<g id="Group_24">
<path id="Vector_52" d="M55.1667 10.8684C55.1569 10.8112 55.324 10.7445 55.5304 10.6874C55.7367 10.6302 55.9136 10.6111 55.9333 10.6683C55.953 10.7159 55.7957 10.8207 55.5795 10.8779C55.3633 10.9351 55.1766 10.9255 55.1667 10.8684Z" fill="white"/>
</g>
</g>
<path id="Vector_53" d="M46.8426 11.3352C46.8426 11.3352 50.7639 10.0395 50.7639 9.96328C50.7639 9.88706 50.2726 8.50562 50.2726 8.50562L46.5773 10.5444L46.8426 11.3352Z" fill="#B9682B"/>
<path id="Vector_54" d="M47.2064 15.5843C47.2064 15.5843 44.1696 9.36299 45.2015 7.17173C45.2015 7.17173 53.5846 7.03835 54.5772 5.69501C55.56 4.35167 55.5109 3.81815 55.5109 3.81815C55.5109 3.81815 57.0342 6.52388 57.7221 7.53377C58.4003 8.55318 58.813 10.8016 58.813 10.8016L59.2553 10.43C59.2553 10.43 57.2602 2.84637 56.5428 2.69393C55.8352 2.5415 52.0515 0.636053 49.6338 2.28426C47.2162 3.93247 43.3047 7.57187 43.8158 9.17245C44.317 10.773 46.9607 15.7558 46.9607 15.7558L47.2064 15.5843Z" fill="#B76A2B"/>
<path id="Vector_55" d="M48.2971 3.2751C48.2971 3.2751 52.071 -0.450045 53.3585 0.0453709C54.6459 0.540787 54.8523 2.12231 54.8523 2.12231C54.8523 2.12231 55.3142 1.52209 55.9825 1.7698C56.6508 2.00798 57.1422 3.70383 57.1422 3.70383L53.5059 3.64666L48.2971 3.2751Z" fill="#B76A2B"/>
<path id="Vector_56" d="M45.1916 7.17175C45.1916 7.17175 43.6388 9.16294 44.1105 10.1061L44.7592 11.4209L45.2505 10.2872C45.2505 10.2967 44.9557 8.40077 45.1916 7.17175Z" fill="#D17933"/>
<path id="Vector_57" d="M48.5136 7.0193C55.1572 2.91307 52.0811 0.312134 52.0811 0.312134L50.7445 1.16958C53.3096 3.38943 46.1746 7.14316 46.1746 7.14316L48.5136 7.0193Z" fill="#D17933"/>
<path id="Vector_58" d="M52.3956 6.55255C52.3956 6.55255 55.3047 3.68485 54.8526 2.11286C54.8526 2.11286 55.1671 1.65555 55.5799 1.70319C55.5799 1.70319 56.4349 3.54194 53.5848 6.24767L52.3956 6.55255Z" fill="#D17933"/>
<path id="Vector_59" d="M55.9137 4.54213C55.9137 4.54213 57.2699 4.19915 57.4272 4.51355L57.9382 5.91405L56.4051 5.39958L55.9137 4.54213Z" fill="#D17933"/>
<path id="Vector_60" d="M53.8007 8.83908L53.0439 7.54338L53.9874 7.47668L54.7048 8.63901L53.8007 8.83908Z" fill="#D17933"/>
<path id="Vector_61" d="M55.3438 8.50555L54.8425 7.40992L55.0784 7.40039L55.7467 8.4198L55.3438 8.50555Z" fill="#D17933"/>
<path id="Vector_62" d="M49.9386 8.68665L50.0959 10.1919L49.4079 10.4682L49.3784 8.99152L49.9386 8.68665Z" fill="#D17933"/>
<path id="Vector_63" d="M48.6902 10.7159L48.5624 9.44873L48.2578 9.70597L48.3266 10.4872L47.9826 9.80124L47.56 10.0013L47.9826 10.9445L48.6902 10.7159Z" fill="#D17933"/>
</g>
</g>
</svg>
