<svg xmlns="http://www.w3.org/2000/svg" width="28" height="26" viewBox="0 0 28 26" fill="none">
  <path d="M18.5001 6.49991C17.6474 6.50264 16.7986 6.61609 15.9751 6.83741C15.6457 6.31058 15.2509 5.82758 14.8001 5.39991L15.9751 3.69991C16.0516 3.59358 16.1062 3.47308 16.1357 3.34544C16.1653 3.21779 16.1691 3.08555 16.147 2.95642C16.1249 2.82728 16.0773 2.70384 16.007 2.59327C15.9367 2.48271 15.8451 2.38723 15.7376 2.31241C15.6303 2.23555 15.5088 2.1807 15.3801 2.15103C15.2515 2.12136 15.1183 2.11745 14.9881 2.13953C14.858 2.16161 14.7335 2.20924 14.6218 2.27967C14.5102 2.35011 14.4136 2.44196 14.3376 2.54991L13.1501 4.24991C12.1111 3.71858 10.9539 3.46048 9.78759 3.49991L9.42509 1.46241C9.37868 1.20051 9.23013 0.967774 9.01212 0.8154C8.79411 0.663027 8.5245 0.603499 8.26259 0.649912C8.00069 0.696325 7.76796 0.844877 7.61558 1.06289C7.46321 1.2809 7.40368 1.55051 7.45009 1.81241L7.81259 3.84991C6.70192 4.21244 5.70033 4.84865 4.90009 5.69991L3.20009 4.51241C2.98269 4.36238 2.71475 4.30446 2.45479 4.3513C2.19483 4.39814 1.96396 4.54594 1.81259 4.76241C1.73606 4.86874 1.68145 4.98924 1.65194 5.11689C1.62243 5.24453 1.61862 5.37677 1.64072 5.50591C1.66283 5.63504 1.7104 5.75849 1.78069 5.86905C1.85097 5.97962 1.94255 6.07509 2.05009 6.14991L3.75009 7.33741C3.21721 8.38035 2.95908 9.54194 3.00009 10.7124L0.962594 11.0749C0.712499 11.1146 0.486754 11.2476 0.330925 11.4472C0.175096 11.6468 0.100787 11.8981 0.122997 12.1503C0.145207 12.4025 0.262282 12.637 0.450591 12.8062C0.6389 12.9755 0.88442 13.0671 1.13759 13.0624H1.31259L3.35009 12.6999C3.52674 13.2467 3.77471 13.7679 4.08759 14.2499C3.1294 15.1362 2.46084 16.291 2.16927 17.5632C1.87771 18.8355 1.97669 20.1661 2.45329 21.3813C2.92989 22.5964 3.76194 23.6395 4.84072 24.3743C5.9195 25.1091 7.19484 25.5014 8.50009 25.4999H18.5001C21.0196 25.4999 23.436 24.499 25.2176 22.7174C26.9992 20.9358 28.0001 18.5195 28.0001 15.9999C28.0001 13.4804 26.9992 11.064 25.2176 9.2824C23.436 7.5008 21.0196 6.49991 18.5001 6.49991ZM5.07509 11.3874V11.3374C4.84806 10.0492 5.14017 8.72344 5.88759 7.64991V7.62491H5.90009C6.65633 6.54804 7.80569 5.81172 9.10009 5.57491H9.16259C10.4314 5.35289 11.7367 5.63549 12.8001 6.36241L12.8626 6.39991L12.9126 6.43741C13.3657 6.7532 13.7593 7.14679 14.0751 7.59991C12.0385 8.67696 10.4586 10.4522 9.62509 12.5999C9.25356 12.5351 8.87724 12.5016 8.50009 12.4999C7.54572 12.5012 6.60306 12.7102 5.73759 13.1124C5.4115 12.5836 5.18684 11.9986 5.07509 11.3874Z" fill="#73877B"/>
</svg>